<svg xmlns="http://www.w3.org/2000/svg" viewBox="260 9 235.4 57.4">
  <defs>
    <style>
      .cls-1 {
        fill: #393e46;
      }
    </style>
  </defs>
  <path id="Logo" class="cls-1" d="M-222.706-708.887a6.225,6.225,0,0,1-2.865-3.78,8.167,8.167,0,0,1-.168-3.434,18.746,18.746,0,0,1,.958-3.753,22.8,22.8,0,0,1,1.686-3.578,33.027,33.027,0,0,1,11.7-11.816,29.476,29.476,0,0,1,3.433-1.717q1.744-.727,3.544-1.309c.262-.077.528-.151.79-.232s.544-.155.843-.232h.057q-.733-.118-1.436-.2c-.466-.061-.945-.128-1.432-.205a11.468,11.468,0,0,1-3.6-1.252,8.018,8.018,0,0,1-2.758-2.531A8.137,8.137,0,0,1-213-745.082a7.358,7.358,0,0,1-.307-2.5,9.607,9.607,0,0,1,1.555-4.9,18.121,18.121,0,0,1,1.6-2.181,26.413,26.413,0,0,1,1.829-1.949,28.429,28.429,0,0,1,3.065-2.444A34.253,34.253,0,0,1-201.9-761.1c.037-.04.065-.057.086-.057s.045-.02.082-.061a.857.857,0,0,0-.336-.145,1.373,1.373,0,0,1-.409-.145q-.9-.336-1.8-.727a19.713,19.713,0,0,0-1.858-.673,10.6,10.6,0,0,0-1.436-.464c-.471-.118-.945-.252-1.432-.407a10.293,10.293,0,0,0-1.719-.337c-.581-.061-1.17-.128-1.772-.205a22.192,22.192,0,0,0-3.573.057,15.235,15.235,0,0,0-3.573.815,18.378,18.378,0,0,0-5.234,2.737,22.243,22.243,0,0,0-2.026,1.744,17.206,17.206,0,0,0-1.743,1.979,22.151,22.151,0,0,0-1.436,2.02c-.41.673-.819,1.387-1.228,2.124a23.679,23.679,0,0,0-1.228,3.084,18.845,18.845,0,0,0-.68,4.343,11.978,11.978,0,0,0,.536,4.1,7.046,7.046,0,0,0,4.219,4.484,5.234,5.234,0,0,0,2.9.434,9.652,9.652,0,0,0,2.955-.959.5.5,0,0,1,.225-.145.5.5,0,0,0,.225-.145.471.471,0,0,1,.479-.088.915.915,0,0,1,.364.2c.078.077.057.155-.057.232a8.863,8.863,0,0,1-4.669,1.454,6.629,6.629,0,0,1-2.279-.377,11.343,11.343,0,0,1-2-.96,7.407,7.407,0,0,1-3.376-5.12,13.534,13.534,0,0,1-.11-5.238,21.153,21.153,0,0,1,3.376-8.311,19.929,19.929,0,0,1,9.339-7.857,14.245,14.245,0,0,1,2.73-.872,20.086,20.086,0,0,1,8.357-.061c.565.118,1.125.242,1.69.38a14.122,14.122,0,0,1,1.637.5l2.816,1.047c.937.337,1.874.717,2.811,1.1.115,0,.188,0,.225-.057q1.451-.69,2.983-1.252a25.955,25.955,0,0,1,3.041-.9,19.207,19.207,0,0,1,2.455-.407,12.349,12.349,0,0,1,2.39,0,11.756,11.756,0,0,1,2.169.438,5.517,5.517,0,0,1,1.94,1.077,2.494,2.494,0,0,1,1.068,1.512,2.2,2.2,0,0,1-.41,2.02,3.674,3.674,0,0,1-1.293.875,7.186,7.186,0,0,1-2.864.579,8.429,8.429,0,0,1-1.854-.084c-.6-.1-1.228-.205-1.858-.337q-1.477-.351-2.9-.842-1.436-.495-2.844-1.077c-.188-.078-.372-.145-.561-.205s-.381-.126-.565-.2h-.225A33.8,33.8,0,0,0-205.661-757a22.114,22.114,0,0,0-3.826,3.727,12.236,12.236,0,0,0-1.351,1.919,9.85,9.85,0,0,0-.9,2.154,7.055,7.055,0,0,0,.552,5.793,6.443,6.443,0,0,0,1.661,1.922,8.481,8.481,0,0,0,2.222,1.222,8.908,8.908,0,0,0,1.293.407.571.571,0,0,0,.254.057.566.566,0,0,1,.254.057l1.015.175a30.748,30.748,0,0,0,3.544.03c1.273-.061,2.4-.145,3.376-.263q.608-.114,1.228-.175t1.228-.175a1.2,1.2,0,0,0,.254-.027,1.191,1.191,0,0,1,.254-.03,1,1,0,0,1,.745.165l.115.115c.188.236.131.391-.168.468q-.542.112-1.1.175a11.116,11.116,0,0,0-1.1.172q-2.361.411-4.641.933a41.949,41.949,0,0,0-4.588,1.346,32.531,32.531,0,0,0-4.276,1.949,31.036,31.036,0,0,0-4.051,2.646,32.051,32.051,0,0,0-8.381,9.719,18.324,18.324,0,0,0-1.973,5.049,11.741,11.741,0,0,0-.364,2.1,6.757,6.757,0,0,0,.139,2.037,5.574,5.574,0,0,0,1.126,2.558,4.548,4.548,0,0,0,2.026,1.629,7.653,7.653,0,0,0,2.455.525,10.51,10.51,0,0,0,2.562-.205,19.088,19.088,0,0,0,2.476-.673,22.073,22.073,0,0,0,2.758-1.05q1.3-.583,2.533-1.249a27.488,27.488,0,0,0,2.418-1.484q1.3-.875,2.533-1.862l2.476-1.979q1.8-1.515,3.458-3.084t3.294-3.144q1.228-1.162,2.418-2.357t2.419-2.414c.749-.777,1.5-1.532,2.251-2.272s1.5-1.491,2.251-2.269l1.69-1.744q.843-.875,1.743-1.747l1.576-1.629c.115-.118.225-.242.34-.377a2.3,2.3,0,0,1,.274-.274c-.01-.037.013-.087.074-.147a.674.674,0,0,1,.409-.337,1,1,0,0,1,.818.263.852.852,0,0,1,.311.784,4.043,4.043,0,0,1-.168,1.107l-1.522,4.538a2.425,2.425,0,0,0-.278.757l.053.057c.188-.232.36-.454.507-.673s.319-.438.508-.673c.409-.545.818-1.077,1.228-1.6s.818-1.057,1.228-1.6a12.592,12.592,0,0,1,2.361-2.387.892.892,0,0,1,.649-.263.891.891,0,0,1,.649.263.862.862,0,0,1,.278.99l-.11.582a3.454,3.454,0,0,1-.168.582q-.335.815-.675,1.542t-.675,1.485c-.078.155-.152.31-.225.465s-.151.31-.225.464c0,.04,0,.061.053.061a1.069,1.069,0,0,1,.282-.293c.565-.619,1.125-1.232,1.69-1.831s1.142-1.212,1.744-1.835a14.849,14.849,0,0,1,1.293-1.192c.45-.37.921-.727,1.408-1.077a1.036,1.036,0,0,1,1.228,0,1.035,1.035,0,0,1,.34.929c-.037.2-.078.4-.11.613a3.283,3.283,0,0,1-.172.609q-.282.758-.589,1.485c-.209.488-.442.98-.7,1.484l-1.015,2.269a4.452,4.452,0,0,0-.168.468l.225-.118.508-.337a2.812,2.812,0,0,0,.45-.377c.524-.427,1.052-.882,1.576-1.37s1.052-.979,1.575-1.481l4.5-4.376h.057a.111.111,0,0,0,.057-.012.659.659,0,0,1,.553-.322.8.8,0,0,1,.618.337.565.565,0,0,1,.172.407,2.415,2.415,0,0,1-.057.64,20.74,20.74,0,0,1-.733,2.212,15.991,15.991,0,0,0-.479,1.683q-.2.865-.409,1.8c-.037.2-.066.391-.082.583a1.576,1.576,0,0,0,.07.66l.843-.522q.79-.643,1.551-1.283c.5-.424,1-.852,1.49-1.279q1.35-1.222,2.672-2.444t2.672-2.444h0q.276-1.07.617-2.127.732-2.242,1.522-4.45.728-2.04,1.518-4.076t1.743-4.073c.377-.852.778-1.683,1.228-2.5s.908-1.609,1.432-2.387c.3-.427.6-.842.9-1.249a8.161,8.161,0,0,1,1-1.125,6.942,6.942,0,0,1,1.969-1.222,2.074,2.074,0,0,1,1.772.088,2.279,2.279,0,0,1,1.043,1.195.546.546,0,0,1,.139.29,1,1,0,0,0,.082.289,4.96,4.96,0,0,1-.029,1.569,12.246,12.246,0,0,1-.409,1.747q-.282.875-.622,1.717a10.991,10.991,0,0,1-.675,1.424c-.147.235-.278.458-.409.673s-.225.418-.336.613a38.967,38.967,0,0,1-3.18,4.888q-1.547,1.98-2.112,2.619-1.125,1.279-2.533,2.676t-3.094,2.908c-.111.337-.225.72-.336,1.108a19.714,19.714,0,0,0-.45,2.444q-.119.643-.172,1.253c-.037.407-.074.825-.11,1.249a10.944,10.944,0,0,0,.168,1.922,2.685,2.685,0,0,0,.565,1.1.632.632,0,0,0,.618.118l.561-.232.565-.236a8.774,8.774,0,0,0,1.408-.841q.675-.495,1.293-1.01a31.443,31.443,0,0,0,2.279-2.239q1.1-1.195,2.046-2.417a7.865,7.865,0,0,1,.589-.754c.2-.236.41-.468.589-.7a.736.736,0,0,1,.355-.282.658.658,0,0,1,.554-.324.8.8,0,0,1,.618.337.567.567,0,0,1,.172.407,2.431,2.431,0,0,1-.057.64,21.972,21.972,0,0,1-.733,2.212,16.08,16.08,0,0,0-.479,1.683l-.409,1.8a5.782,5.782,0,0,0-.082.583,1.564,1.564,0,0,0,.07.66l.843-.522q.794-.643,1.551-1.283c.5-.424,1-.852,1.489-1.279q1.351-1.222,2.672-2.444t2.672-2.444a.541.541,0,0,1,.071-.042,3.227,3.227,0,0,1,1.582-.928,2.031,2.031,0,0,1,1.351.232.987.987,0,0,1,.45,1.454,1.461,1.461,0,0,1-.9.788,1.628,1.628,0,0,1-1.228-.088c-.037-.037-.066-.057-.082-.057a.164.164,0,0,1-.086-.061.2.2,0,0,0-.057.088.15.15,0,0,1-.053.088,18.956,18.956,0,0,0-.79,1.861,11.141,11.141,0,0,0-.508,1.98,8.2,8.2,0,0,0-.168.959,2.806,2.806,0,0,0,.057.963,2.339,2.339,0,0,0,.283.815.713.713,0,0,0,.843.464,2.651,2.651,0,0,0,.872-.145c.282-.1.573-.205.871-.32a8.513,8.513,0,0,0,1.661-.99,17.357,17.357,0,0,0,1.432-1.222q.676-.639,1.3-1.309c.409-.448.818-.9,1.228-1.37l2.533-2.791a.331.331,0,0,1,.11-.148.632.632,0,0,0,.172-.145c.164-.205.372-.205.6-.014a.186.186,0,0,1,.127.134.159.159,0,0,1-.07.159l-.115.115q-.841,1.05-1.715,2.067c-.581.68-1.174,1.346-1.772,2.02q-.794.936-1.661,1.777t-1.829,1.6a9.175,9.175,0,0,1-2.587,1.347,4.219,4.219,0,0,1-2.59-.118.532.532,0,0,0-.139-.057.491.491,0,0,1-.143-.061,2.251,2.251,0,0,1-1.068-.987,3.864,3.864,0,0,1-.409-1.346,4.775,4.775,0,0,1,.029-1.367c.074-.448.151-.825.225-1.135a9.206,9.206,0,0,1,.562-1.66l-.128.125c-.712.7-1.445,1.377-2.194,2.02q-.9.818-1.772,1.629c-.585.545-1.175,1.087-1.776,1.629a3.4,3.4,0,0,1-.9.64,1.4,1.4,0,0,1-1.49.088,1.782,1.782,0,0,1-.986-1.481,3.5,3.5,0,0,1,0-1.515,15.87,15.87,0,0,1,.654-2.854q-.38.459-.76.911-1.126,1.34-2.353,2.545a15.193,15.193,0,0,1-2.758,2.269,8.063,8.063,0,0,1-1.126.582,6.049,6.049,0,0,1-1.183.337,2.352,2.352,0,0,1-1.715-.293,2.361,2.361,0,0,1-1.043-1.4,7.793,7.793,0,0,1-.225-1.919,13.5,13.5,0,0,1,.115-1.683q.111-.873.283-1.683.109-.589.237-1.176-.726.663-1.428,1.351c-.712.7-1.445,1.377-2.194,2.02q-.9.818-1.772,1.629c-.585.545-1.175,1.087-1.776,1.629a3.4,3.4,0,0,1-.9.64,1.4,1.4,0,0,1-1.489.088,1.781,1.781,0,0,1-.986-1.481,3.5,3.5,0,0,1,0-1.515,15.975,15.975,0,0,1,.988-3.778l-.141.135c-.487.464-.978.969-1.465,1.511q-1.125,1.111-2.279,2.154t-2.332,2.094c-.188.158-.356.293-.508.407a5.366,5.366,0,0,1-.508.337,1.342,1.342,0,0,1-1.518,0,.794.794,0,0,1-.467-.912,2.646,2.646,0,0,1,.168-.875,12.039,12.039,0,0,1,.536-1.367c.2-.444.409-.882.646-1.309s.442-.852.647-1.279.409-.855.646-1.283a1.873,1.873,0,0,0,.115-.579,1.4,1.4,0,0,1-.282.232q-.786.579-1.519,1.222c-.491.427-.958.872-1.408,1.347-.528.545-1.031,1.1-1.518,1.66s-.958,1.134-1.408,1.717a3.961,3.961,0,0,1-.45.495c-.152.135-.319.283-.508.438a.892.892,0,0,1-.569.3,1.007,1.007,0,0,1-.659-.131.6.6,0,0,1-.409-.754,3.331,3.331,0,0,0,.172-.613,3.032,3.032,0,0,1,.168-.609q.409-.929.786-1.834c.262-.6.544-1.212.847-1.831.074-.2.159-.4.254-.613a6.606,6.606,0,0,0,.25-.673.363.363,0,0,1-.11.088.526.526,0,0,0-.115.088,21.7,21.7,0,0,0-2.361,2.619q-1.383,1.862-2.738,3.545a2.058,2.058,0,0,1-.409.495,1.975,1.975,0,0,0-.409.491.75.75,0,0,1-.565.236c-.037-.041-.111-.041-.225,0a.979.979,0,0,1-.561-.061.666.666,0,0,1-.409-.815q.282-1.162.651-2.3c.241-.754.516-1.522.818-2.3.151-.428.3-.875.45-1.346q.086-.266.178-.529-1.727,1.836-3.456,3.569-1.576,1.632-3.274,3.346t-2.983,3a3.924,3.924,0,0,1-.786.815q-1.637,1.683-3.319,3.319t-3.376,3.2q-.618.64-1.228,1.2c-.409.367-.818.747-1.228,1.134a51.72,51.72,0,0,1-6.359,5.181,38.753,38.753,0,0,1-3.462,2.124,22.415,22.415,0,0,1-3.741,1.6,18.436,18.436,0,0,1-5.095.929q-.2.009-.409.009A8.88,8.88,0,0,1-222.706-708.887Zm93.562-28.991.11.118c.188.232.376.273.565.118a.836.836,0,0,0,.45-.815.354.354,0,0,0-.172-.468A1.983,1.983,0,0,0-129.144-737.878Zm-9.343-23.207a5.032,5.032,0,0,0-2.3,1.572,13.951,13.951,0,0,0-1.69,2.269,20.494,20.494,0,0,0-1.293,2.387q-.565,1.222-1.126,2.5-.789,1.862-1.493,3.754t-1.322,3.811c-.074.232-.188.572-.336,1.01s-.3.9-.45,1.367-.282.9-.409,1.31-.188.673-.225.784c.262-.269.552-.562.872-.872s.61-.593.872-.845.487-.475.675-.673l.336-.337q1.637-1.683,3.295-3.666a32.854,32.854,0,0,0,2.9-4.016c.336-.542.638-1.047.9-1.515a30.977,30.977,0,0,0,2.026-4.538,9.16,9.16,0,0,0,.364-1.192,5.562,5.562,0,0,0,.159-1.249,4.455,4.455,0,0,0-.225-1.454.906.906,0,0,0-.847-.582,1.067,1.067,0,0,1-.364.057h-.012A.421.421,0,0,0-138.487-761.086ZM-192-763.1a28.966,28.966,0,0,0-3.573.815,24.773,24.773,0,0,0-3.515,1.38l-.057.057c.487.2.958.377,1.408.552s.917.337,1.4.5a18.452,18.452,0,0,0,2.815.872l1.183.235q.557.118,1.179.232a9.688,9.688,0,0,0,2.816-.061,6.774,6.774,0,0,0,1.1-.337,3.1,3.1,0,0,0,.986-.609,1.665,1.665,0,0,0,.786-1.347,1.326,1.326,0,0,0-.561-1.222,3.169,3.169,0,0,0-.986-.609,6.462,6.462,0,0,0-1.154-.337,8.072,8.072,0,0,0-1.911-.236A15.86,15.86,0,0,0-192-763.1Zm113.172,53.848a8.3,8.3,0,0,1-1.228-2.969c-.078-.387-.151-.767-.225-1.134a11.9,11.9,0,0,1-.172-1.192,9.393,9.393,0,0,1,2.251-6.228,11.785,11.785,0,0,1,1.351-1.4c.491-.428.994-.835,1.522-1.222q1.363-.961,2.84-1.8,1.436-.815,2.9-1.572.729-.337,1.436-.727c.467-.252.966-.495,1.49-.727a.844.844,0,0,0,.282-.407c.188-.737.364-1.465.536-2.182s.344-1.427.532-2.124v-.175l-.057-.057a4.172,4.172,0,0,0-.278.582c-.225.337-.462.673-.7,1.01a7,7,0,0,1-.872.96,3.317,3.317,0,0,1-1.522.757,3.253,3.253,0,0,1-2.455-.7,1.494,1.494,0,0,1-.532-.673,7.021,7.021,0,0,1-.254-.845,4.471,4.471,0,0,1-.068-.578q-.6.871-1.2,1.763c-.565.815-1.126,1.639-1.69,2.474s-1.146,1.656-1.744,2.471q-1.469,2.094-2.9,4.191t-2.9,4.191a50.743,50.743,0,0,1-5.459,6.46c-.3.31-.63.62-.986.929a6.932,6.932,0,0,1-1.154.815,2.527,2.527,0,0,1-1.293.582,1.121,1.121,0,0,1-.958-.29,1.978,1.978,0,0,1-.479-.875,4.321,4.321,0,0,1-.139-1.134,7.182,7.182,0,0,1,.057-1.134,1.558,1.558,0,0,1,.029-.32,2.338,2.338,0,0,1,.082-.32,39.064,39.064,0,0,1,1.17-5.3.606.606,0,0,0,.057-.262.6.6,0,0,1,.053-.263q.454-1.683,1.043-3.285t1.228-3.174q1.129-2.848,2.455-5.558t2.725-5.44q1.637-3.141,3.295-6.14t3.348-6.022q1.125-1.979,2.193-3.928t2-3.966c.262-.542.507-1.077.733-1.6a12.709,12.709,0,0,0,.565-1.6,1.561,1.561,0,0,0,.139-.464,3.647,3.647,0,0,1,.086-.464v-.337l-.34.115q-.145.053-.282.118a8.5,8.5,0,0,0-2.193,1.454q-.958.818-1.829,1.66t-1.711,1.747c-.675.737-1.334,1.474-1.968,2.212s-1.26,1.495-1.858,2.269-1.261,1.629-1.858,2.444-1.2,1.65-1.8,2.5q-1.469,1.919-2.787,3.955t-2.615,4.073c-.753,1.242-1.49,2.474-2.222,3.7s-1.457,2.454-2.169,3.7-1.469,2.5-2.165,3.78l-2.046,3.784q-1.408,2.5-2.7,4.975t-2.476,5.033a.249.249,0,0,0-.057.175.705.705,0,0,1-1.068.337.3.3,0,0,1-.11-.337c.074-.232.147-.464.225-.7s.147-.485.225-.757q2.046-5.76,4.219-11.523,1.461-3.666,2.84-7.332t2.8-7.4q.957-2.619,1.829-5.211t1.637-5.265A40.272,40.272,0,0,0-91-756.615c.074-.505.143-.99.2-1.454a7.438,7.438,0,0,0,.029-1.454,7.444,7.444,0,0,0-.057-1.138,2.822,2.822,0,0,0-.336-1.074,2.446,2.446,0,0,0-.282-.525,1.029,1.029,0,0,0-.532-.377,6.388,6.388,0,0,0-.651-.148,4.464,4.464,0,0,0-1.321.088,6.335,6.335,0,0,0-1.265.438,13.892,13.892,0,0,0-1.886.99q-.929.579-1.772,1.222a26.891,26.891,0,0,0-6.02,6.635,24.919,24.919,0,0,0-2.7,6.224,24.308,24.308,0,0,0-.508,2.619,17.3,17.3,0,0,0-.11,1.892,17.1,17.1,0,0,0,.11,1.892,11.057,11.057,0,0,0,1.293,4.117,5.184,5.184,0,0,0,1.35,1.515,1.787,1.787,0,0,0,1.8.29,4.518,4.518,0,0,0,1.228-.64.912.912,0,0,1,.675-.232.148.148,0,0,0,.11.057.4.4,0,0,0,.115.088.336.336,0,0,1,.11.145.3.3,0,0,1-.225.118,1.326,1.326,0,0,1-.336.232,3.083,3.083,0,0,1-2.138.815,3.082,3.082,0,0,1-2.138-.815A6.5,6.5,0,0,1-108-737.6a10.224,10.224,0,0,1-.9-3.491,14.982,14.982,0,0,1-.057-2.969,20.557,20.557,0,0,1,1.351-6,25.458,25.458,0,0,1,6.245-9.136q1.015-.929,2.083-1.744,1.05-.8,2.194-1.515a10,10,0,0,1,1.408-.7,6.715,6.715,0,0,1,1.518-.407,4.925,4.925,0,0,1,1.858,0,3.77,3.77,0,0,1,1.686.815,4.156,4.156,0,0,1,1.408,2.444,10.557,10.557,0,0,1,.143,1.346c0,.468.025.912.025,1.346a24.559,24.559,0,0,1-.532,3.959q-.409,1.919-.929,3.841-.618,2.02-1.293,4.073t-1.465,4.073q-1.125,2.969-2.251,5.847t-2.308,5.79c-.45,1.128-.909,2.269-1.379,3.434l-1.359,3.43a.161.161,0,0,0-.057.118l.336-.525q.957-1.8,1.972-3.548l2.046-3.494q1.121-2.02,2.3-4.013t2.455-3.959q1.183-1.919,2.394-3.753t2.5-3.7c.818-1.165,1.637-2.306,2.5-3.434s1.715-2.249,2.615-3.366q2.361-2.855,4.952-5.47l1.35-1.282a13.347,13.347,0,0,1,1.408-1.161,5.9,5.9,0,0,1,1.293-.7,1.571,1.571,0,0,1,1.489.293,1.5,1.5,0,0,1,.536,1.454,3.817,3.817,0,0,1-.139.99c-.094.337-.18.673-.254.986-.3.855-.638,1.683-1.015,2.5s-.769,1.609-1.179,2.387q-1.228,2.383-2.533,4.682t-2.591,4.629q-1.461,2.693-2.955,5.353t-2.9,5.413q-1.178,2.33-2.308,4.683t-2.136,4.8c-.151.387-.311.835-.479,1.346s-.336,1.01-.508,1.484-.319.912-.45,1.279-.217.613-.254.727l-.11.337c-.037.118-.078.232-.115.337q-.282.99-.532,1.919t-.536,1.922c-.11.62-.217,1.229-.307,1.831a6.934,6.934,0,0,0-.086,1.6.848.848,0,0,1,.057.337,1.031,1.031,0,0,0,.278.525c.151.155.434.118.847-.118a.81.81,0,0,0,.139-.084.608.608,0,0,1,.139-.088l.172-.175.225-.118a1.026,1.026,0,0,0,.225-.175c.487-.427.945-.862,1.379-1.309s.872-.923,1.322-1.424q1.228-1.347,2.361-2.824t2.2-3q1.289-1.862,2.558-3.7t2.562-3.7q1.068-1.515,2.107-3.03t2.112-3.03q.621-.881,1.234-1.771.02-.117.043-.236a5.64,5.64,0,0,1,.675-1.865.169.169,0,0,1,.057-.115,1.759,1.759,0,0,1,.282-.495c.11-.135.225-.283.336-.437l.172-.175a5.5,5.5,0,0,1,1.432-1.134,2.2,2.2,0,0,1,2-.027h.057l.057.057a3.09,3.09,0,0,1,1.011.872,1.475,1.475,0,0,1-.053,1.515.451.451,0,0,1-.26.267.618.618,0,0,1-.415.022c-.225-.037-.282-.155-.168-.337a1.79,1.79,0,0,0,.221-.872,1.229,1.229,0,0,0-.618-.99l-.057-.057c-.3-.155-.638-.057-1.011.289a4.566,4.566,0,0,0-1.154,1.777q-.36,1.01-.479,1.485v.172a11.908,11.908,0,0,0-.168,1.979l.111.582a3.466,3.466,0,0,0,.172.582.247.247,0,0,0,.053.175.562.562,0,0,1,.115.175.491.491,0,0,0,.675.232,2.861,2.861,0,0,0,.536-.293c.168-.115.344-.252.532-.407a10.451,10.451,0,0,0,1.35-1.744l1.228-2.1c.409-.7.818-1.414,1.179-2.151a.153.153,0,0,0,.057-.088.165.165,0,0,1,.057-.088.574.574,0,0,1,.618-.337.691.691,0,0,1,.484.24.463.463,0,0,1,.08.461l-.172.7c-.262,1.124-.516,2.262-.757,3.4s-.5,2.3-.761,3.464v.175a.688.688,0,0,0,.143-.088.539.539,0,0,1,.139-.088,36.4,36.4,0,0,0,7.317-5.763c.41-.424.819-.831,1.207-1.222s.818-.774,1.228-1.161a3.516,3.516,0,0,1,.292-.277l.011-.022c.155-.31.274-.468.311-.468a.585.585,0,0,1,.532-.262.589.589,0,0,1,.479.38.687.687,0,0,1,.057.465c-.078.232-.159.464-.254.7a6.766,6.766,0,0,0-.254.754c-.11.273-.217.545-.307.815s-.18.566-.254.875-.143.542-.2.815-.123.542-.2.815a4.9,4.9,0,0,0-.111.673,1.714,1.714,0,0,0,0,.613,1.174,1.174,0,0,0,.057.337.222.222,0,0,0,.225.175h.11a1.247,1.247,0,0,0,.225-.148,1.7,1.7,0,0,1,.225-.145l.565-.582a5.065,5.065,0,0,0,.5-.61c.151-.212.3-.417.45-.613l1.69-2.444q.843-1.221,1.637-2.444c.11-.155.241-.337.409-.582a.316.316,0,0,1,.34-.115,1.612,1.612,0,0,1,.647.407.887.887,0,0,1,.139.7c-.074.427-.16.845-.254,1.253a12.23,12.23,0,0,1-.364,1.249l-.565,1.747c-.188.583-.372,1.165-.561,1.747-.037.155-.078.29-.115.408a1.574,1.574,0,0,0-.053.464q-.061.411.307.263a1.483,1.483,0,0,0,.479-.263,22.771,22.771,0,0,0,3.544-2.794c.376-.337.733-.707,1.072-1.077s.675-.744,1.011-1.134l1.015-1.162a7.489,7.489,0,0,0,.945-1.155.636.636,0,0,1,.058-.066.991.991,0,0,0-.05-.3,3.232,3.232,0,0,1,.79-.118.854.854,0,0,1,.9.757,3.784,3.784,0,0,1-.115.872c-.11.427-.233.835-.364,1.222s-.274.8-.409,1.222q-.336.99-.647,1.949t-.593,1.953a.6.6,0,0,0-.057.259.6.6,0,0,1-.053.263v.057a1.276,1.276,0,0,0,.278-.172,6.916,6.916,0,0,0,1.747-1.515l1.657-1.831c.544-.6,1.1-1.2,1.661-1.778.376-.424.749-.832,1.126-1.222s.749-.795,1.125-1.222a.7.7,0,0,1,.409-.175.121.121,0,0,1,.086.03.1.1,0,0,0,.086.03c.074.037.184.108.336.2a.883.883,0,0,1,.34.438.243.243,0,0,1,.053.175v.29a9.559,9.559,0,0,1-.409,1.979c-.188.7-.409,1.4-.618,2.094l-.7,2.117-.115.232.647-.438a5.82,5.82,0,0,0,.593-.437q1.293-.929,2.533-1.831t2.529-1.892c.638-.505,1.268-1.01,1.886-1.572s1.228-1.084,1.829-1.629c.019-.012.038-.023.056-.032l.013-.015a3.212,3.212,0,0,1,1.637-.99,2.031,2.031,0,0,1,1.351.232.98.98,0,0,1,.45,1.454,1.461,1.461,0,0,1-.9.788,1.617,1.617,0,0,1-1.228-.088c-.037-.037-.065-.057-.086-.057s-.045-.02-.082-.061a.162.162,0,0,0-.057.088.165.165,0,0,1-.057.088,19.654,19.654,0,0,0-.786,1.861,10.789,10.789,0,0,0-.508,1.98,7.423,7.423,0,0,0-.168.959,2.815,2.815,0,0,0,.053.963,2.423,2.423,0,0,0,.283.815.715.715,0,0,0,.843.464,2.618,2.618,0,0,0,.872-.145c.282-.1.573-.205.875-.32a8.609,8.609,0,0,0,1.657-.99,17.42,17.42,0,0,0,1.436-1.222q.676-.639,1.293-1.309c.41-.448.819-.9,1.228-1.37l2.529-2.791a.339.339,0,0,1,.115-.148.631.631,0,0,0,.168-.145q.019-.023.039-.042a.287.287,0,0,1,.125-.2.419.419,0,0,1,.283-.07.845.845,0,0,1,.843.99,8.139,8.139,0,0,1-.45,2.094c-.188.545-.372,1.087-.561,1.629l-.565,1.629a.113.113,0,0,1-.029.088.136.136,0,0,0-.029.088l.679-.872c.446-.582.9-1.155,1.347-1.717s.941-1.114,1.465-1.66a12.156,12.156,0,0,1,.9-.845c.3-.249.618-.512.958-.784a1.428,1.428,0,0,1,.733-.337.966.966,0,0,1,.757.088.993.993,0,0,1,.479.673,1.79,1.79,0,0,1,.115.64,4.56,4.56,0,0,1-.057.7,10.322,10.322,0,0,1-.311,1.346c-.131.427-.27.855-.409,1.283s-.291.841-.41,1.249-.274.825-.409,1.252c-.037,0-.057.037-.057.115.074-.078.123-.115.139-.115s.065-.037.143-.118l1.576-1.4,1.576-1.394q1.228-1.165,2.476-2.272t2.586-2.094H.942a.117.117,0,0,0,.086-.03c0-.017.066-.027.139-.027s.115.057.225.175v.145a.312.312,0,0,1-.11.2l-5.172,4.521-.11.057c-.487.427-.958.872-1.408,1.346s-.921.909-1.408,1.346l-.675.525a.981.981,0,0,1-.929.2,1.357,1.357,0,0,1-.7-.434.835.835,0,0,1-.11-.582,3.074,3.074,0,0,1,.11-.814c.078-.273.152-.546.229-.816q.335-.818.675-1.683c.225-.583.409-1.162.618-1.744.074-.232.147-.468.225-.7s.147-.485.225-.754a.486.486,0,0,0,.057-.293l-.225.118c-.266.2-.52.4-.761.609l-.7.613c-.524.542-1.023,1.1-1.489,1.683s-.929,1.185-1.379,1.8a10.542,10.542,0,0,0-.818,1.077,10.861,10.861,0,0,1-.818,1.077.9.9,0,0,1-.675.464.908.908,0,0,1-.843-.175,1.017,1.017,0,0,1-.34-.815,5.507,5.507,0,0,1,.172-.872c.074-.273.147-.562.221-.875q.282-.983.622-2.02.252-.77.5-1.511-.291.346-.584.689c-.581.68-1.17,1.346-1.772,2.02a23.683,23.683,0,0,1-1.661,1.777q-.871.843-1.825,1.6a9.137,9.137,0,0,1-2.591,1.347,4.2,4.2,0,0,1-2.586-.118.536.536,0,0,0-.143-.057.481.481,0,0,1-.139-.061,2.28,2.28,0,0,1-1.072-.987,3.957,3.957,0,0,1-.409-1.346,4.911,4.911,0,0,1,.029-1.367c.078-.448.151-.825.225-1.135a9.26,9.26,0,0,1,.673-1.9q-.467.393-.91.775-1.015.875-2.107,1.683t-2.222,1.629q-.9.64-1.776,1.222t-1.715,1.161a.916.916,0,0,0-.282.337q-.729,2.212-1.49,4.376t-1.543,4.315a42.687,42.687,0,0,1-2.647,5.878l-1.228,1.98a13.168,13.168,0,0,1-1.408,1.861,11.492,11.492,0,0,1-1.264,1.134,7.106,7.106,0,0,1-1.436.845,3.513,3.513,0,0,1-4.219-.99,6.391,6.391,0,0,1-1.183-4.249,10.608,10.608,0,0,1,.929-3.609A12.712,12.712,0,0,1-47.945-721a18.9,18.9,0,0,1,1.518-1.515c.528-.465,1.068-.909,1.637-1.347q1.293-.99,2.672-1.865c.921-.579,1.846-1.141,2.787-1.683.45-.31.908-.6,1.379-.872s.945-.562,1.432-.875a.1.1,0,0,0,.115-.114q.618-1.572,1.183-3.144t1.126-3.141c.074-.2.139-.367.2-.525s.119-.337.2-.522v-.175a7.258,7.258,0,0,0-.565.64c-.561.623-1.117,1.232-1.657,1.834s-1.08,1.212-1.6,1.831a2.833,2.833,0,0,1-.34.407l-.11.118c-.115.115-.319.337-.618.673a8.248,8.248,0,0,1-1.015.929,8.3,8.3,0,0,1-1.154.757,1.216,1.216,0,0,1-1.04.145.119.119,0,0,1-.086-.03.119.119,0,0,0-.086-.027c-.037-.04-.066-.061-.082-.061a.152.152,0,0,1-.086-.057,1.3,1.3,0,0,1-.45-.464,1.926,1.926,0,0,1-.225-.933,7.183,7.183,0,0,1,.34-2.212,18.266,18.266,0,0,1,.675-2.124q.139-.355.282-.706-.359.405-.741.8a1.412,1.412,0,0,1-.282.32,1.6,1.6,0,0,0-.282.337,1.511,1.511,0,0,1-.336.289l-.675.673c-.225.236-.471.468-.733.7-.336.31-.675.6-1.011.872s-.7.545-1.072.815a10.27,10.27,0,0,1-1.179.845,6.586,6.586,0,0,1-1.3.609,1.475,1.475,0,0,1-.589.118.9.9,0,0,1-.593-.232,1.091,1.091,0,0,1-.278-.613,2.044,2.044,0,0,1,0-.673q.053-.337.11-.673c.037-.215.074-.418.115-.613a14.339,14.339,0,0,1,.675-2.444l.2-.49-.253.3a2.178,2.178,0,0,1-.254.407,3.739,3.739,0,0,0-.254.337c-.188.273-.364.532-.532.784s-.348.515-.536.788a11.578,11.578,0,0,1-1.015,1.161l-.11.118a3.343,3.343,0,0,1-.45.377,3.2,3.2,0,0,1-.618.337,1.745,1.745,0,0,1-.7.145,1.052,1.052,0,0,1-.7-.289,1.39,1.39,0,0,1-.507-.7,1.617,1.617,0,0,1-.11-.579v-.643a11.694,11.694,0,0,1,.307-2.151q.143-.581.34-1.152-1.082,1.105-2.165,2.2a29.3,29.3,0,0,1-4.841,3.841l-2.533,1.569a.7.7,0,0,0-.409.525q-.729,3.03-1.6,5.965t-1.829,5.908a22.363,22.363,0,0,1-1.744,4.248,8.8,8.8,0,0,1-.9,1.481,6.89,6.89,0,0,1-1.228,1.252,7.064,7.064,0,0,1-1.637,1.01,5.527,5.527,0,0,1-1.886.434q-.14.008-.276.008A3.23,3.23,0,0,1-78.825-709.254Zm11.8-17.973c-.409.2-.818.387-1.154.582s-.724.387-1.1.582q-.958.465-1.915.99c-.639.337-1.256.717-1.858,1.1-.524.337-1.047.707-1.575,1.077a19.053,19.053,0,0,0-1.519,1.192,11.348,11.348,0,0,0-2.026,2.387,8.527,8.527,0,0,0-1.109,6.342,11.67,11.67,0,0,0,.282,1.222,7.171,7.171,0,0,0,.45,1.165c.188.273.356.542.508.815a2.472,2.472,0,0,0,.561.7,2.236,2.236,0,0,0,2.026.64,3.491,3.491,0,0,0,1.154-.437,4.847,4.847,0,0,0,.986-.784,10.971,10.971,0,0,0,1.8-2.562,16.156,16.156,0,0,0,.7-1.542c.209-.532.409-1.057.589-1.6q.957-2.969,1.8-5.851t1.617-5.847a.676.676,0,0,0,.057-.293A.9.9,0,0,1-67.023-727.227Zm28.02.438c-.712.448-1.445.919-2.194,1.424s-1.568,1.03-2.337,1.572a21.425,21.425,0,0,0-2.222,1.8,13.148,13.148,0,0,0-1.968,2.151,14.918,14.918,0,0,0-1.465,2.5,9.941,9.941,0,0,0-.622,2.208,9.3,9.3,0,0,0-.057,2.269,2.212,2.212,0,0,0,.172.872,3.083,3.083,0,0,0,.336.845,6.28,6.28,0,0,0,.508.727l.168.175a2.587,2.587,0,0,0,1.183.727,2.175,2.175,0,0,0,1.911-.552c.151-.118.295-.232.409-.337s.249-.232.364-.337a7.237,7.237,0,0,0,1.011-1.161q.454-.639.847-1.282a38.246,38.246,0,0,0,3.225-6.659q.789-2.02,1.465-4.073t1.408-4.073l.053-.115C-37.558-727.672-38.291-727.237-39-726.79Zm16.471-11.089.115.118c.184.232.372.273.561.118a.835.835,0,0,0,.45-.815.353.353,0,0,0-.168-.468A1.988,1.988,0,0,0-22.531-737.878ZM-137.7-740.911a1.609,1.609,0,0,1-.847-.337.778.778,0,0,1-.11-.552.639.639,0,0,1,.254-.407.606.606,0,0,1,.45-.118.806.806,0,0,1,.479.262.623.623,0,0,1,.336.7.6.6,0,0,1-.557.461Zm-20.421,0a1.609,1.609,0,0,1-.847-.337.779.779,0,0,1-.11-.552.643.643,0,0,1,.254-.407.6.6,0,0,1,.45-.118.806.806,0,0,1,.479.262.624.624,0,0,1,.336.7.6.6,0,0,1-.561.461Z" transform="translate(494.008 774.056)"/>
</svg>
